<svg width="56" height="32" viewBox="0 0 56 32" fill="none" xmlns="http://www.w3.org/2000/svg">
<path id="Union" fill-rule="evenodd" clip-rule="evenodd" d="M28.9615 0V6.00034V14.0003V17.9994L28.9615 25.9993V31.9997H36.2022H45.8559V25.9993H38.1336L45.8559 17.9994V14.0003H36.2022L45.8559 6.00034V0L36.2022 0L28.9615 0ZM48.3096 0.0138161L55.4829 0.0138161V31.986H48.3096V0.0138161ZM0 11.999L26.5481 11.999V17.9993L0 17.9993L0 11.999ZM4.82767 22.0005L21.7221 22.0005L21.7221 19.9993H26.5481L26.5481 32H21.7221L4.82767 32H0L0 19.9993H4.82767V22.0005ZM21.7218 5.00055C15.386 5.48432 14.1811 5.88746 13.5324 10.0011H26.5495V0L13.5308 0C14.1795 4.11365 15.3844 4.51679 21.7202 5.00055H21.7218ZM4.83822 4.99975C11.1648 4.51634 12.3687 4.11136 13.017 0L0 0L0 9.9995L13.017 9.9995C12.3687 5.88814 11.1648 5.48316 4.83822 4.99975Z" fill="black"/>
</svg>
