<svg width="38" height="17" viewBox="0 0 38 17" fill="none" xmlns="http://www.w3.org/2000/svg">
<rect x="0.48291" y="0.567078" width="37.3384" height="16.4329" rx="5" fill="#FE4437"/>
<path fill-rule="evenodd" clip-rule="evenodd" d="M9.20182 3.31621C8.70138 3.81638 8.31973 4.56995 8.05495 5.57918L5.48291 15H6.65889L7.40852 12.2058C7.73181 12.6415 8.06165 12.9461 8.39382 13.1217C8.72599 13.2973 9.10313 13.384 9.55422 13.384C10.0053 13.384 10.4317 13.2884 10.8334 13.0994C11.2352 12.9105 11.583 12.6504 11.8771 12.3214C12.1711 11.9902 12.4046 11.6034 12.575 11.1566C12.748 10.712 12.8332 10.2296 12.8332 9.71609C12.8332 9.3382 12.7726 8.97585 12.6558 8.6313C12.5369 8.28674 12.3619 8.01332 12.1263 7.8088C12.0386 7.73988 11.9467 7.6732 11.848 7.60429C11.7515 7.53538 11.6235 7.45758 11.4664 7.37088C12.1711 7.10857 12.6761 6.77513 12.9791 6.37278C13.282 5.97042 13.4347 5.46359 13.4347 4.85227C13.4347 4.16538 13.2215 3.61186 12.795 3.19395C12.3686 2.77604 11.803 2.56708 11.0983 2.56708C10.333 2.56708 9.70226 2.81605 9.20182 3.31621ZM10.1579 6.78625H9.52497L9.52947 6.78847L9.30954 7.80658H10.104C10.5753 7.80658 10.9592 7.97775 11.2577 8.32231C11.5561 8.66686 11.7065 9.12034 11.7065 9.68276C11.7065 10.0807 11.6459 10.4452 11.5292 10.7742C11.4103 11.1032 11.2532 11.39 11.0579 11.6323C10.8515 11.8746 10.6113 12.0613 10.3375 12.1925C10.0637 12.3236 9.76514 12.3881 9.442 12.3881C9.06048 12.3881 8.72831 12.2969 8.45 12.1124C8.16937 11.9279 7.91361 11.6167 7.67795 11.181L9.14796 5.83927C9.36339 5.09236 9.6305 4.54106 9.94914 4.18761C10.2656 3.83416 10.6472 3.65632 11.0871 3.65632C11.4596 3.65632 11.7648 3.7697 12.005 3.99866C12.2429 4.22762 12.3641 4.51661 12.3641 4.86561C12.3641 5.0968 12.3036 5.34133 12.1868 5.59252C12.0701 5.84371 11.9085 6.06823 11.702 6.26162C11.4956 6.44613 11.2756 6.5795 11.04 6.66175C10.8043 6.744 10.5103 6.78625 10.1579 6.78625ZM24.2749 5.68829C24.5532 5.68829 24.8336 5.68824 25.1139 5.68163C25.3967 5.67718 25.7311 5.66162 26.1216 5.63495L25.7491 6.58193C25.4416 6.56414 25.152 6.55302 24.8828 6.54636C24.6111 6.54191 24.3576 6.53969 24.1242 6.53969L23.4037 11.1212C23.3454 11.488 23.3408 11.7703 23.3903 11.9726C23.4374 12.1749 23.5362 12.3149 23.682 12.3972C23.8167 12.4883 24.003 12.5306 24.2387 12.5217C24.4743 12.5128 24.7526 12.4705 25.0736 12.3994L25.0825 13.153C25.0242 13.1708 24.9344 13.193 24.8177 13.2219L24.7223 13.2439C24.6353 13.264 24.5459 13.2847 24.4541 13.3041C24.3173 13.3308 24.1915 13.353 24.0726 13.3664C23.9536 13.3797 23.8571 13.3864 23.7809 13.3864C23.4621 13.3864 23.1905 13.3486 22.9684 13.2752C22.7461 13.2019 22.5756 13.0885 22.4589 12.9329C22.3197 12.7951 22.2323 12.6106 22.194 12.3772C22.1558 12.1438 22.1604 11.8726 22.2097 11.5613L22.9975 6.54191H22.0818L22.2165 5.69051H23.1321C23.204 5.29706 23.2579 4.92583 23.2938 4.57238C23.3296 4.22115 23.3611 3.90772 23.3858 3.63206L24.7391 3.44089C24.6225 3.82547 24.5327 4.19225 24.4676 4.5457C24.4027 4.89629 24.3376 5.2779 24.2749 5.68829ZM15.5711 9.63681L15.5154 9.99026C15.4503 10.4015 15.4435 10.7661 15.493 11.0817C15.5423 11.3974 15.65 11.6553 15.8139 11.8575C15.9777 12.0687 16.2021 12.2243 16.4872 12.3244C16.7722 12.4244 17.1112 12.4755 17.5039 12.4755C17.955 12.4755 18.341 12.4177 18.6642 12.3044C18.9874 12.191 19.2858 12.0376 19.5598 11.8442L19.8896 12.5155C19.5417 12.7623 19.1154 12.9623 18.6126 13.118C18.1099 13.2736 17.6183 13.3514 17.1403 13.3514C16.5388 13.3514 16.0361 13.2536 15.6321 13.0557C15.2259 12.8579 14.9116 12.5822 14.685 12.2243C14.4493 11.8776 14.2966 11.4619 14.2316 10.9839C14.1665 10.5038 14.1777 9.98137 14.2675 9.41229C14.3573 8.83654 14.5211 8.30526 14.7567 7.82065C14.9924 7.33605 15.2842 6.91592 15.6298 6.56025C15.9665 6.21347 16.3458 5.94227 16.77 5.75108C17.1941 5.55991 17.6452 5.46433 18.1233 5.46433C18.6215 5.46433 19.048 5.55103 19.4049 5.72441C19.7617 5.89781 20.0467 6.149 20.2577 6.48022C20.4575 6.81811 20.5831 7.2427 20.6347 7.74952C20.6864 8.25635 20.6595 8.84544 20.554 9.51232L20.5337 9.63681H15.5711ZM19.47 7.78954C19.5014 8.09631 19.4879 8.44086 19.4273 8.82543H19.4228H15.7084C15.7735 8.41419 15.87 8.05629 16.0046 7.74952C16.1393 7.44276 16.3054 7.18044 16.5096 6.96038C16.7004 6.75809 16.9203 6.60247 17.1672 6.49355C17.4141 6.38463 17.6879 6.32905 17.9886 6.32905C18.2984 6.32905 18.5564 6.38907 18.763 6.50689C18.9694 6.62471 19.1378 6.78921 19.2634 7.00039C19.3689 7.22047 19.4385 7.48277 19.47 7.78954ZM32.7178 12.6487L31.8649 13.4157C31.6809 13.3334 31.5103 13.2045 31.3554 13.0311C31.2007 12.8577 31.1042 12.6421 31.0704 12.3864C30.8954 12.5509 30.7001 12.6954 30.4892 12.8177C30.2781 12.9422 30.0672 13.0444 29.8563 13.1267C29.6251 13.2178 29.4029 13.2867 29.1829 13.3312C28.9652 13.3779 28.7564 13.4001 28.559 13.4001C28.1931 13.4001 27.8655 13.3556 27.5737 13.2689C27.2819 13.1822 27.0486 13.0422 26.8735 12.851C26.685 12.6776 26.557 12.4531 26.4874 12.1797C26.4179 11.9063 26.4112 11.5906 26.4672 11.2327C26.5346 10.8037 26.6714 10.4236 26.878 10.0946C27.0844 9.76556 27.365 9.4877 27.7196 9.25873C28.063 9.03867 28.4804 8.86973 28.9675 8.75191C29.4545 8.63409 30.0224 8.57407 30.671 8.57407H31.544L31.6248 8.0539C31.6718 7.75157 31.6809 7.50038 31.6518 7.30032C31.6225 7.10025 31.5619 6.92907 31.4699 6.79348C31.3667 6.67566 31.2276 6.58674 31.0525 6.53339C30.8774 6.47782 30.6641 6.45114 30.4106 6.45114C30.1861 6.45114 29.9685 6.46894 29.762 6.50672C29.5555 6.54229 29.3535 6.58897 29.156 6.64454C28.9473 6.71791 28.743 6.80238 28.5455 6.89796C28.348 6.99355 28.1393 7.10691 27.9216 7.23362L27.5468 6.39557C27.7937 6.25775 28.054 6.13104 28.3323 6.011C28.6084 5.89319 28.8934 5.79093 29.1896 5.70868C29.4657 5.62643 29.7417 5.56419 30.02 5.52418C30.2983 5.48416 30.5633 5.46193 30.8168 5.46193C31.2477 5.46193 31.6068 5.51528 31.8896 5.61976C32.1724 5.72425 32.3945 5.89319 32.5561 6.11993C32.7066 6.35778 32.7918 6.66233 32.8143 7.03133C32.8368 7.40256 32.8053 7.8516 32.7222 8.38289L32.3318 10.7837C32.3183 10.8748 32.3004 10.966 32.2823 11.0571C32.2622 11.1482 32.2465 11.2394 32.233 11.3305C32.2306 11.3732 32.2289 11.4165 32.2272 11.4604C32.2256 11.5011 32.2239 11.5422 32.2218 11.5839C32.2173 11.6706 32.2218 11.7507 32.2397 11.824C32.2756 12.0708 32.3205 12.2375 32.3721 12.3242C32.4238 12.4109 32.5382 12.5176 32.7155 12.6465L32.7178 12.6487ZM31.3756 9.45214C31.2814 9.45214 31.1602 9.44546 31.012 9.43212C30.864 9.41879 30.772 9.41211 30.7337 9.41211C30.2826 9.41211 29.8854 9.44324 29.5375 9.5077C29.1896 9.57217 28.8979 9.6722 28.6599 9.81003C28.4131 9.94785 28.22 10.1235 28.0854 10.3369C27.9486 10.5525 27.8566 10.8059 27.8116 11.0971C27.7756 11.3261 27.7735 11.5261 27.8071 11.6995C27.8409 11.8729 27.9104 12.0152 28.0158 12.1241C28.1101 12.2442 28.2426 12.3331 28.4176 12.3909C28.5903 12.4509 28.7991 12.4798 29.0438 12.4798C29.2323 12.4798 29.4141 12.4598 29.5892 12.4176C29.7641 12.3775 29.9392 12.3153 30.112 12.233C30.2759 12.1508 30.4353 12.0463 30.5902 11.9174C30.7472 11.7885 30.9043 11.6351 31.0637 11.4506L31.378 9.44768L31.3756 9.45214Z" fill="white"/>
</svg>
